<svg width="20" height="20" viewBox="0 0 20 20" fill="none" xmlns="http://www.w3.org/2000/svg">
<g id="cart 1">
<g id="_x33_5_Shopping_Cart">
<path id="Vector" d="M17.9999 3.6374H17.4207L16.4789 1.88322C16.1971 1.36479 15.5481 1.17123 15.0332 1.4501L12.0671 3.04732L11.4404 1.88381C11.158 1.35959 10.5091 1.17396 9.99406 1.45068L5.93523 3.6374H3.55375L3.27523 2.48143C3.0691 1.62545 2.31016 1.02783 1.42984 1.02783H0.690898C0.524922 1.02783 0.390625 1.16213 0.390625 1.32811C0.390625 1.49408 0.524922 1.62838 0.690898 1.62838H1.42988C2.0316 1.62838 2.55066 2.03717 2.69141 2.62217L5.34937 13.6558C5.54176 14.454 6.24934 15.0115 7.0707 15.0115H7.75953V16.1977C7.12949 16.3358 6.65574 16.8968 6.65574 17.5677C6.65574 18.3421 7.28562 18.972 8.0598 18.972C8.83426 18.972 9.46414 18.3421 9.46414 17.5677C9.46414 16.8967 8.99039 16.3358 8.36008 16.1976V15.0114H14.3229V16.1975C13.6925 16.3355 13.2185 16.8966 13.2185 17.5676C13.2185 18.3421 13.8484 18.972 14.6229 18.972C15.397 18.972 16.0269 18.3421 16.0269 17.5676C16.0269 16.8969 15.5533 16.336 14.9234 16.1978V15.0114H16.8442C17.0102 15.0114 17.1445 14.8771 17.1445 14.7112C17.1445 14.5452 17.0102 14.4109 16.8442 14.4109H7.0707C6.52789 14.4109 6.06019 14.0426 5.93352 13.515L5.67301 12.4338H16.6618C17.4081 12.4338 18.0512 11.9268 18.2254 11.201L19.5638 5.62057C19.8059 4.61025 19.041 3.6374 17.9999 3.6374ZM8.86363 17.5677C8.86363 18.0108 8.50293 18.3715 8.05984 18.3715C7.61676 18.3715 7.25637 18.0108 7.25637 17.5677C7.25637 17.1246 7.61676 16.7642 8.05984 16.7642C8.50293 16.7642 8.86363 17.1246 8.86363 17.5677ZM15.4264 17.5677C15.4264 18.0108 15.0661 18.3715 14.623 18.3715C14.1799 18.3715 13.8192 18.0108 13.8192 17.5677C13.8192 17.1246 14.1799 16.7642 14.623 16.7642C15.0661 16.7642 15.4264 17.1246 15.4264 17.5677ZM15.3188 1.97854C15.5434 1.85654 15.8273 1.94217 15.9504 2.16857L16.7393 3.63744H12.3867L12.3535 3.57557L15.3188 1.97854ZM11.2011 8.26307V11.8333H8.45226L7.99406 8.26307H11.2011ZM7.91699 7.66248L7.4775 4.23799H11.2011V7.66248H7.91699ZM11.8016 8.26307H15.0087L14.5505 11.8333H11.8017V8.26307H11.8016ZM11.8016 7.66248V4.23799H15.5252L15.0857 7.66248H11.8016ZM10.2791 1.97939C10.5029 1.85791 10.7884 1.93943 10.9113 2.16885L11.7025 3.6374H7.20125L10.2791 1.97939ZM6.87184 4.23799L7.31133 7.66248H4.52348L3.69844 4.23799H6.87184ZM4.6682 8.26307H7.38844L7.84664 11.8333H5.52836L4.6682 8.26307ZM17.6413 11.0609C17.5322 11.5157 17.1296 11.8333 16.6618 11.8333H15.1561L15.6143 8.26311H18.3123L17.6413 11.0609ZM18.9797 5.48045L18.4564 7.66248H15.6914L16.1309 4.23799C16.3382 4.23799 18.0642 4.23799 17.9999 4.23799C18.653 4.23799 19.1313 4.84818 18.9797 5.48045Z" fill="#FC1481"/>
</g>
</g>
</svg>
