<svg width="48" height="66" viewBox="0 0 48 66" fill="none" xmlns="http://www.w3.org/2000/svg">
<g id="downward">
<path id="Vector" fill-rule="evenodd" clip-rule="evenodd" d="M0.912681 21.1998C2.12959 20.0104 4.10256 20.0104 5.31947 21.1998L23.8899 39.3537L42.4602 21.1998C43.6771 20.0104 45.6502 20.0104 46.8671 21.1998C48.0838 22.3894 48.0838 24.3183 46.8671 25.5079L26.0933 45.8156C24.8764 47.005 22.9033 47.005 21.6864 45.8156L0.912681 25.5079C-0.304227 24.3183 -0.304227 22.3894 0.912681 21.1998Z" fill="white" fill-opacity="0.5"/>
<path id="Vector_2" fill-rule="evenodd" clip-rule="evenodd" d="M1.13338 40.4922C2.35029 39.3027 4.32326 39.3027 5.54017 40.4922L24.1106 58.6461L42.6809 40.4922C43.8978 39.3027 45.8709 39.3027 47.0878 40.4922C48.3046 41.6818 48.3046 43.6106 47.0878 44.8002L26.314 65.108C25.0971 66.2974 23.124 66.2974 21.9071 65.108L1.13338 44.8002C-0.0835238 43.6106 -0.0835238 41.6818 1.13338 40.4922Z" fill="white" fill-opacity="0.1"/>
<path id="Vector_3" fill-rule="evenodd" clip-rule="evenodd" d="M0.912681 0.892205C2.12959 -0.297402 4.10256 -0.297402 5.31947 0.892205L23.8899 19.046L42.4602 0.892205C43.6771 -0.297402 45.6502 -0.297402 46.8671 0.892205C48.0838 2.08181 48.0838 4.01052 46.8671 5.20012L26.0933 25.5079C24.8764 26.6974 22.9033 26.6974 21.6864 25.5079L0.912681 5.20012C-0.304227 4.01052 -0.304227 2.08181 0.912681 0.892205Z" fill="white"/>
</g>
</svg>
