<svg id="SvgjsSvg1020" width="288" height="288" xmlns="http://www.w3.org/2000/svg" version="1.1" xmlns:xlink="http://www.w3.org/1999/xlink" xmlns:svgjs="http://svgjs.com/svgjs"><defs id="SvgjsDefs1021"></defs><g id="SvgjsG1022"><svg xmlns="http://www.w3.org/2000/svg" viewBox="0 0 192.756 192.756" width="288" height="288"><g fill-rule="evenodd" clip-rule="evenodd" fill="#c5e3f6" class="color000 svgShape"><path fill="#fc1481" d="M0 0h192.756v192.756H0V0z" class="colorfff svgShape"></path><path fill="#44337a" d="M12.083 96.378c0-46.349 37.73-83.964 84.28-83.964 46.578 0 84.308 37.616 84.308 83.964 0 46.388-37.73 83.966-84.308 83.966-46.55 0-84.28-37.578-84.28-83.966zm127.642-27.847V45.585c-34.512-22.868-63.164-17.62-77.643-7.01-22.553 16.471-27.916 53.244 7.507 68.106 17.161 7.201 31.525 8.082 39.685 11.607 9.461 4.059 14.977 22.752-8.965 26.928-18.807 3.256-38.725-7.852-54.575-27.273.154.346 0 26.469 0 26.469 26.459 22.064 72.694 31.182 96.864-5.055 11.529-17.277 3.717-41.523-10.955-49.683-25.818-14.365-39.915-7.624-54.048-21.22-8.503-8.159-3.754-22.984 14.86-22.371 25.168.806 47.27 22.448 47.27 22.448z" class="color50aa58 svgShape"></path></g></svg></g></svg>