<svg width="136" height="47" viewBox="0 0 136 47" fill="none" xmlns="http://www.w3.org/2000/svg">
<g id="Logo Snipeads 1" clip-path="url(#clip0_4649_692)">
<path id="Vector" d="M50.5704 17.6245V18.2094H46.651V17.6245C46.6355 16.0635 46.0031 14.5717 44.8913 13.4733C43.7795 12.3749 42.2782 11.7588 40.7136 11.7588C39.149 11.7588 37.6477 12.3749 36.5359 13.4733C35.4241 14.5717 34.7918 16.0635 34.7762 17.6245V18.2094H30.8545V17.6245C30.8545 15.0154 31.8932 12.5132 33.7422 10.6682C35.5912 8.82333 38.099 7.78687 40.7139 7.78687C43.3288 7.78687 45.8366 8.82333 47.6856 10.6682C49.5346 12.5132 50.5733 15.0154 50.5733 17.6245H50.5704Z" fill="white"/>
<path id="Vector_2" d="M50.5413 22.1296H46.4795V26.754C48.2531 25.6369 49.664 24.0306 50.5413 22.1296Z" fill="white"/>
<path id="Vector_3" d="M63.0217 25.9461C62.4623 24.8295 61.6323 23.8698 60.6071 23.1543C60.1851 24.6668 59.5905 26.126 58.835 27.5031C58.917 27.6181 58.9922 27.7378 59.0601 27.8617C59.4921 28.6696 59.7071 29.5754 59.6844 30.4908C59.7077 31.4213 59.4929 32.3423 59.0601 33.1668C58.6762 33.8809 58.1068 34.4787 57.4117 34.8976C56.7486 35.2933 55.991 35.5035 55.2184 35.506C54.4457 35.5086 53.6867 35.3035 53.021 34.9122C52.8356 34.8046 52.6592 34.6824 52.4934 34.5466C50.871 35.6674 49.0966 36.5515 47.224 37.1723L46.4795 37.4185V47.0006H50.75V36.5716C51.3695 37.3689 52.1551 38.0225 53.0526 38.4872C54.0636 39.01 55.1899 39.2714 56.3284 39.2476C57.7123 39.2638 59.072 38.8842 60.2466 38.1538C61.4387 37.3986 62.3988 36.3297 63.0211 35.0649C63.7245 33.6443 64.0745 32.0756 64.0417 30.4914C64.077 28.9161 63.7269 27.3559 63.0217 25.9461Z" fill="white"/>
<path id="Vector_4" d="M3.88785 38.4251C2.76333 37.9692 1.78721 37.2117 1.06761 36.2364C0.365554 35.2511 -0.0079163 34.0703 0.00012725 32.8614H4.57254C4.58306 33.2501 4.67064 33.6329 4.83021 33.9877C4.98978 34.3425 5.2182 34.6623 5.50227 34.9285C6.14479 35.4648 6.96797 35.7367 7.8043 35.6889C8.64628 35.7369 9.47777 35.4834 10.1491 34.9741C10.4258 34.7484 10.6468 34.4622 10.7948 34.1376C10.9428 33.813 11.0139 33.4588 11.0026 33.1024C11.0229 32.5296 10.8146 31.9721 10.4235 31.5524C10.0155 31.1326 9.52135 30.8058 8.97496 30.5943C8.19119 30.2946 7.39227 30.0359 6.58147 29.8193C5.4318 29.4979 4.30607 29.0967 3.21254 28.6185C2.33354 28.2122 1.56845 27.5961 0.984955 26.8245C0.325286 25.8895 -0.000855395 24.7606 0.0587479 23.6186C0.0329633 22.454 0.363405 21.3092 1.00606 20.3367C1.66412 19.3816 2.58547 18.6372 3.65864 18.1936C4.89388 17.6774 6.22322 17.4232 7.5622 17.4472C9.47541 17.3603 11.3617 17.923 12.9131 19.0435C13.5939 19.5754 14.1498 20.2496 14.5419 21.0186C14.934 21.7876 15.1528 22.6329 15.1829 23.4952H10.4885C10.4734 23.1447 10.3825 22.8016 10.222 22.4894C10.0615 22.1773 9.8353 21.9034 9.55882 21.6867C8.9002 21.1845 8.08466 20.9313 7.25678 20.9719C6.53529 20.9349 5.82509 21.1621 5.25958 21.6106C5.0036 21.8444 4.80365 22.1326 4.67456 22.454C4.54548 22.7754 4.49057 23.1217 4.51392 23.4671C4.50608 23.7287 4.55208 23.9891 4.64907 24.2323C4.74607 24.4755 4.892 24.6962 5.07785 24.8809C5.48064 25.2738 5.95713 25.5837 6.48006 25.7927C7.03891 26.0267 7.82658 26.2952 8.84306 26.5982C9.99903 26.9215 11.13 27.328 12.2272 27.8142C13.1142 28.2318 13.8868 28.8571 14.4794 29.6368C15.1458 30.5644 15.4787 31.6893 15.4244 32.8292C15.43 33.9447 15.1239 35.0397 14.5404 35.9913C13.9155 36.9964 13.0165 37.8031 11.9488 38.3169C10.6852 38.9225 9.29535 39.2196 7.89399 39.1837C6.52082 39.2051 5.1577 38.947 3.88785 38.4251Z" fill="white"/>
<path id="Vector_5" d="M82.6473 31.8273H70.2994C70.3398 32.9094 70.7989 33.9338 71.5803 34.6852C72.3357 35.3759 73.3306 35.7465 74.3548 35.7187C75.0593 35.7609 75.76 35.5888 76.3643 35.225C76.9685 34.8612 77.4479 34.323 77.739 33.6815H82.343C81.8691 35.2832 80.8842 36.6869 79.538 37.6794C78.0632 38.7527 76.2713 39.3036 74.4468 39.2446C72.9194 39.2694 71.4118 38.8976 70.072 38.1654C68.7929 37.4585 67.7451 36.3986 67.0542 35.1128C66.3112 33.7083 65.9388 32.1382 65.972 30.5505C65.9368 28.9551 66.3037 27.3765 67.0389 25.9595C67.7163 24.676 68.7556 23.6186 70.0286 22.9179C71.3783 22.224 72.8738 21.8593 74.3921 21.8541C75.9105 21.8488 77.4085 22.203 78.7631 22.8875C80.0139 23.5577 81.0417 24.5773 81.7205 25.8215C82.44 27.1618 82.8021 28.6641 82.7721 30.1843C82.7755 30.7345 82.7337 31.284 82.6473 31.8273ZM78.348 28.9694C78.3572 28.4703 78.2554 27.9753 78.0498 27.5202C77.8443 27.0651 77.5401 26.6611 77.1592 26.3373C76.3674 25.6723 75.3583 25.3207 74.3237 25.3494C73.3452 25.3208 72.392 25.6629 71.6559 26.3069C70.9047 27.0035 70.4334 27.9491 70.3299 28.9671L78.348 28.9694Z" fill="white"/>
<path id="Vector_6" d="M97.5382 34.2595H88.2697L86.5627 38.9722H83.6357L91.3185 17.9031H94.5199L102.172 38.9722H99.2453L97.5382 34.2595ZM96.7451 32.01L92.9036 21.3061L89.0622 32.01H96.7451Z" fill="white"/>
<path id="Vector_7" d="M104.134 26.0971C104.784 24.8524 105.772 23.8148 106.984 23.1023C108.219 22.3863 109.626 22.0186 111.055 22.0384C112.32 22.0298 113.568 22.3383 114.683 22.9356C115.736 23.4734 116.621 24.2881 117.244 25.2917V16.4741H120.048V38.9728H117.244V35.8406C116.668 36.8615 115.825 37.7073 114.805 38.2878C113.656 38.945 112.348 39.2761 111.024 39.2453C109.6 39.2652 108.199 38.8853 106.98 38.1488C105.762 37.4123 104.776 36.349 104.134 35.0802C103.425 33.6874 103.069 32.1424 103.097 30.5804C103.063 29.0231 103.419 27.482 104.134 26.0971ZM116.482 27.3254C116.011 26.4324 115.298 25.6896 114.424 25.1817C113.556 24.696 112.578 24.4396 111.582 24.4369C110.587 24.4343 109.608 24.6854 108.737 25.1665C107.869 25.6688 107.16 26.4067 106.695 27.2944C106.168 28.3073 105.905 29.4369 105.933 30.5781C105.904 31.734 106.166 32.8785 106.695 33.9074C107.159 34.8042 107.867 35.5524 108.737 36.0663C109.598 36.5651 110.577 36.8226 111.572 36.8115C112.572 36.8213 113.556 36.564 114.423 36.0663C115.3 35.5559 116.014 34.8072 116.481 33.9074C117.008 32.8886 117.269 31.7544 117.243 30.6085C117.271 29.4686 117.01 28.3401 116.484 27.3277L116.482 27.3254Z" fill="white"/>
<path id="Vector_8" d="M126.458 38.5925C125.507 38.2076 124.676 37.5781 124.049 36.7682C123.46 35.9896 123.12 35.0519 123.073 34.0776H125.939C125.975 34.4816 126.099 34.8731 126.301 35.2248C126.503 35.5766 126.78 35.8802 127.112 36.1148C127.919 36.6743 128.889 36.9523 129.871 36.9056C130.759 36.9545 131.639 36.7076 132.371 36.2037C132.655 36.0057 132.887 35.7418 133.046 35.4346C133.206 35.1273 133.288 34.7861 133.286 34.4402C133.298 34.104 133.213 33.7714 133.039 33.4827C132.866 33.194 132.613 32.9616 132.31 32.8136C131.348 32.3481 130.335 31.9962 129.292 31.7648C128.258 31.5088 127.244 31.1787 126.258 30.7769C125.479 30.4452 124.79 29.9347 124.246 29.2871C123.661 28.5503 123.363 27.6265 123.408 26.6872C123.405 25.8461 123.672 25.0262 124.17 24.3476C124.726 23.6006 125.474 23.0177 126.335 22.6607C127.346 22.2299 128.437 22.0174 129.536 22.0372C131.148 21.9611 132.736 22.4564 134.017 23.4357C134.583 23.9031 135.04 24.488 135.356 25.1497C135.672 25.8114 135.839 26.5339 135.847 27.2669H133.073C133.056 26.8626 132.953 26.4665 132.771 26.1048C132.589 25.7432 132.332 25.4241 132.018 25.1688C131.279 24.6102 130.367 24.3303 129.442 24.3786C128.601 24.3348 127.769 24.5585 127.064 25.0173C126.788 25.1998 126.562 25.4485 126.408 25.7406C126.253 26.0327 126.175 26.3588 126.18 26.689C126.171 26.9389 126.214 27.1879 126.306 27.4206C126.398 27.6532 126.536 27.8647 126.713 28.0419C127.097 28.4144 127.553 28.7041 128.054 28.8929C128.788 29.1691 129.536 29.4074 130.295 29.6071C131.29 29.8642 132.267 30.184 133.222 30.5646C133.969 30.8768 134.632 31.3613 135.156 31.9783C135.719 32.6745 136.016 33.5469 135.994 34.4408C136.004 35.3208 135.737 36.1818 135.232 36.9033C134.688 37.6621 133.944 38.2563 133.083 38.6206C132.077 39.052 130.991 39.2644 129.897 39.2435C128.718 39.2627 127.548 39.0412 126.458 38.5925Z" fill="white"/>
<g id="Group">
<path id="Vector_9" d="M58.3936 17.6317C58.3942 19.1045 58.2099 20.5716 57.8449 21.9986C57.5129 23.3034 57.0289 24.5648 56.4028 25.7573C54.3129 29.7684 50.7608 32.8271 46.4784 34.3034C46.4748 34.3034 46.4672 34.3069 46.4637 34.3069V30.123C46.4672 30.1195 46.4743 30.1195 46.4784 30.116C48.1282 29.3557 49.6114 28.2777 50.8426 26.9439C52.0738 25.6101 53.0289 24.0468 53.6529 22.3437C54.2101 20.8351 54.4952 19.24 54.4953 17.6323C54.4953 13.9843 53.043 10.4858 50.4578 7.90636C47.8726 5.32689 44.3664 3.87776 40.7104 3.87776C37.0544 3.87776 33.5481 5.32689 30.9629 7.90636C28.3778 10.4858 26.9254 13.9843 26.9254 17.6323C26.9254 17.8276 26.9289 18.0195 26.9401 18.2078H23.0365C23.0291 18.0269 23.0254 17.835 23.0254 17.6323C23.0523 12.9699 24.9274 8.50759 28.241 5.22023C31.5547 1.93288 36.0376 0.0876465 40.7104 0.0876465C45.3832 0.0876465 49.866 1.93288 53.1797 5.22023C56.4934 8.50759 58.3685 12.9699 58.3954 17.6323L58.3936 17.6317Z" fill="white"/>
</g>
<path id="Vector_10" d="M42.815 22.1289H38.5469V38.972H42.815V22.1289Z" fill="white"/>
<path id="Vector_11" d="M38.8355 19.4923C38.3788 19.0575 38.0881 18.4777 38.0133 17.8523C37.9385 17.227 38.0842 16.5952 38.4255 16.0654C38.7668 15.5356 39.2824 15.141 39.8836 14.9492C40.4848 14.7575 41.1342 14.7806 41.7202 15.0147C42.3062 15.2487 42.7922 15.6791 43.0947 16.2318C43.3972 16.7846 43.4974 17.4252 43.3781 18.0436C43.2587 18.662 42.9273 19.2197 42.4407 19.6208C41.954 20.0218 41.3426 20.2413 40.7114 20.2415C40.364 20.2512 40.0183 20.1897 39.6956 20.0609C39.373 19.932 39.0803 19.7385 38.8355 19.4923Z" fill="white"/>
<path id="Vector_12" d="M33.019 23.7861C34.2587 25.0526 34.8787 26.821 34.8791 29.0912V38.9721H30.6103V29.6691C30.6849 28.5497 30.3247 27.4446 29.6044 26.5831C29.2507 26.2183 28.8228 25.9332 28.3495 25.7471C27.8762 25.5609 27.3684 25.478 26.8603 25.504C26.3453 25.4772 25.8305 25.5595 25.3497 25.7455C24.8688 25.9315 24.4329 26.217 24.0706 26.5831C23.3411 27.4402 22.9748 28.5471 23.0494 29.6691V38.9727H18.7812V22.1273H23.0494V24.2253C23.6286 23.4876 24.3761 22.8986 25.2295 22.5074C26.1415 22.086 27.1362 21.873 28.1412 21.8839C29.0419 21.8469 29.9406 21.9968 30.7802 22.3242C31.6199 22.6516 32.3822 23.1494 33.019 23.7861Z" fill="white"/>
</g>
<defs>
<clipPath id="clip0_4649_692">
<rect width="136" height="47" fill="white"/>
</clipPath>
</defs>
</svg>
